<svg width="44" height="58" viewBox="0 0 44 58" fill="none" xmlns="http://www.w3.org/2000/svg">
<path d="M18.667 0H41.2234V11.5288H20.1523C19.1645 11.5288 18.1698 11.5991 17.2269 11.8934C11.5656 13.6606 10.9515 18.2293 11.5443 21.2557C11.717 22.1372 12.1269 22.9471 12.578 23.7239L25.4339 45.8647H11.3988C7.38877 38.68 -1.10988 25.1273 0.120586 15.0376C1.37373 4.76189 10.8975 1.96949e-06 18.667 0Z" fill="url(#paint0_linear_336_1309)"/>
<path d="M25.0625 57.3934H2.50614V45.8646H23.5772C24.565 45.8646 25.5597 45.7943 26.5026 45.5C32.1639 43.7328 32.778 39.1642 32.1852 36.1377C32.0125 35.2562 31.6026 34.4463 31.1515 33.6695L18.2956 11.5288H32.3307C36.3407 18.7134 44.8394 32.2662 43.6089 42.3559C42.3558 52.6315 32.832 57.3934 25.0625 57.3934Z" fill="url(#paint1_linear_336_1309)"/>
<defs>
<linearGradient id="paint0_linear_336_1309" x1="44.9991" y1="1.13559e-06" x2="-5.0954" y2="6.48118" gradientUnits="userSpaceOnUse">
<stop stop-color="#19FB9B"/>
<stop offset="1" stop-color="#8C01FA"/>
</linearGradient>
<linearGradient id="paint1_linear_336_1309" x1="-1.26957" y1="57.3934" x2="48.8249" y2="50.9123" gradientUnits="userSpaceOnUse">
<stop stop-color="#19FB9B"/>
<stop offset="1" stop-color="#8C01FA"/>
</linearGradient>
</defs>
</svg>
